<mxfile host="app.diagrams.net" modified="2023-05-23T20:28:41.178Z" agent="Mozilla/5.0 (Windows NT 10.0; Win64; x64) AppleWebKit/537.36 (KHTML, like Gecko) Chrome/110.0.0.0 YaBrowser/23.3.4.603 Yowser/2.5 Safari/537.36" version="21.3.2" etag="di82HYt7frtwiEoCh_rN" type="github">
  <diagram name="Страница 1" id="qZt4wcyKQcJxALjbdxPp">
    <mxGraphModel>
      <root>
        <mxCell id="0" />
        <mxCell id="1" parent="0" />
      </root>
    </mxGraphModel>
  </diagram>
</mxfile>
